<svg width="286" height="85" viewBox="0 0 286 85" fill="none" xmlns="http://www.w3.org/2000/svg">
<g clip-path="url(#clip0_5_1355)">
<path fill-rule="evenodd" clip-rule="evenodd" d="M22.7881 0.00744993H263.225C264.084 0.00744993 264.957 0.00717453 265.816 0.0114116C266.41 0.0147837 267.017 0.0236751 267.616 0.0324514C267.751 0.0344267 267.885 0.0363962 268.019 0.0382956C269.621 0.0540738 271.219 0.179268 272.799 0.412765C274.385 0.651989 275.922 1.09969 277.36 1.74108C280.234 3.0497 282.573 5.12409 284.049 7.6725C284.77 8.94231 285.269 10.3019 285.528 11.7047C285.795 13.1067 285.943 14.5244 285.972 15.946C285.981 16.5956 285.981 17.2473 285.981 17.8969C286 18.6645 286 19.4341 286 20.2099V64.5477C286 65.3299 286 66.0953 285.981 66.8649C285.981 67.5227 285.981 68.16 285.972 68.818C285.943 70.2395 285.795 71.6571 285.528 73.059C285.269 74.4627 284.77 75.8231 284.049 77.0933C283.316 78.3576 282.363 79.5117 281.225 80.5133C280.095 81.5235 278.79 82.3666 277.36 83.0104C275.922 83.6535 274.385 84.1038 272.799 84.3467C271.219 84.5783 269.621 84.7035 268.019 84.7213C267.291 84.7357 266.544 84.744 265.816 84.744C264.957 84.7482 264.084 84.7482 263.225 84.7482H22.7881C21.9117 84.7482 21.0458 84.7482 20.1717 84.744C19.44 84.744 18.7141 84.7357 17.9754 84.7213C16.3706 84.7025 14.7697 84.5773 13.186 84.3467C11.6046 84.1055 10.0732 83.655 8.64285 83.0104C7.21083 82.3669 5.90466 81.5238 4.77424 80.5133C3.63336 79.5156 2.68239 78.3606 1.95827 77.0933C1.23112 75.824 0.72737 74.4635 0.464501 73.059C0.198404 71.6573 0.0552115 70.2394 0.0362089 68.818C0.021056 68.3684 0.0151622 67.9286 0.00922182 67.4852C0.0064672 67.2797 0.00370255 67.0733 0 66.8649V17.8969C0.00374643 17.6887 0.0065326 17.4802 0.00931975 17.2717C0.0152273 16.8297 0.0211392 16.3874 0.0362089 15.9461C0.0552057 14.5246 0.198398 13.1066 0.464501 11.7048C0.728098 10.3012 1.23182 8.94147 1.95827 7.67259C2.68271 6.40117 3.63356 5.24154 4.77424 4.23828C5.90896 3.23219 7.21429 2.38966 8.64285 1.74127C10.0732 1.09831 11.6048 0.650489 13.186 0.412956C14.7694 0.180483 16.3705 0.0553323 17.9754 0.0385922C18.1287 0.0364415 18.2815 0.0342068 18.434 0.0319777C19.0157 0.0234698 19.5919 0.0150444 20.1717 0.011687C21.0458 0.00744993 21.9117 0.00744993 22.7881 0.00744993ZM17.8126 82.8782C18.5363 82.8926 19.2481 82.9009 19.9776 82.9009L263.439 82.9051L266.034 82.9009C266.747 82.9009 267.481 82.8926 268.183 82.8782C269.682 82.862 271.178 82.7465 272.658 82.5326C274.047 82.3239 275.394 81.9312 276.651 81.3676C277.892 80.8093 279.023 80.0777 280.002 79.2009C280.981 78.3414 281.802 77.3505 282.433 76.2647C283.066 75.1508 283.502 73.9573 283.726 72.726C283.97 71.4274 284.107 70.1148 284.135 68.7985C284.144 68.1489 284.144 67.5176 284.144 66.8285C284.163 66.0712 284.163 65.32 284.163 64.5502V20.2032C284.163 19.4406 284.163 18.6843 284.144 17.8897C284.144 17.2482 284.144 16.6036 284.137 16.0035C284.109 14.6634 283.97 13.3269 283.721 12.0046C283.496 10.7894 283.064 9.61144 282.44 8.51062C281.165 6.30922 279.143 4.5162 276.658 3.38288C275.397 2.82236 274.049 2.43112 272.658 2.22201C271.186 2.00833 269.699 1.89316 268.208 1.87749L266.022 1.85057H19.9788L17.8185 1.87645C16.314 1.89295 14.8131 2.00915 13.3282 2.22408C11.951 2.4306 10.6167 2.81914 9.36992 3.37667C8.12965 3.93903 6.99674 4.67011 6.0125 5.54325C5.02715 6.40817 4.20641 7.40849 3.5821 8.50545C2.94824 9.61392 2.50947 10.8016 2.28098 12.0274C2.03541 13.3388 1.90293 14.665 1.88467 15.9942C1.87067 16.4246 1.8495 17.8897 1.8495 17.8897V66.8389C1.8495 66.8389 1.86937 68.3269 1.88455 68.7737C1.90362 70.1051 2.03688 71.4333 2.28318 72.7468C2.51125 73.9692 2.94968 75.1535 3.5832 76.2583C4.20982 77.3561 5.03514 78.3556 6.02646 79.2175C7.00364 80.0896 8.13293 80.8169 9.37109 81.3716C10.6207 81.9309 11.9576 82.3222 13.3376 82.5326C14.8176 82.7454 16.3133 82.8609 17.8126 82.8782Z" fill="#A6A6A6"/>
<path d="M19.9776 82.9008C19.2482 82.9008 18.5364 82.8925 17.8126 82.8781C16.3134 82.8608 14.8176 82.7453 13.3376 82.5325C11.9576 82.3222 10.6208 81.9309 9.37114 81.3716C8.13298 80.8169 7.00368 80.0895 6.02651 79.2174C5.03518 78.3556 4.20986 77.356 3.58325 76.2583C2.94973 75.1534 2.5113 73.9692 2.28323 72.7467C2.03693 71.4332 1.90367 70.1051 1.8846 68.7737C1.86942 68.3268 1.84955 66.8389 1.84955 66.8389V17.8897C1.84955 17.8897 1.87071 16.4246 1.88472 15.9942C1.90298 14.6649 2.03546 13.3388 2.28102 12.0273C2.50952 10.8015 2.94829 9.61387 3.58215 8.5054C4.20646 7.40844 5.0272 6.40812 6.01255 5.5432C6.99679 4.67006 8.1297 3.93898 9.36996 3.37662C10.6167 2.81909 11.951 2.43055 13.3283 2.22403C14.8131 2.0091 16.3141 1.8929 17.8185 1.8764L19.9788 1.85052H266.022L268.208 1.87744C269.699 1.89311 271.187 2.00828 272.658 2.22196C274.049 2.43107 275.397 2.82231 276.658 3.38283C279.143 4.51615 281.165 6.30917 282.44 8.51057C283.064 9.61139 283.496 10.7894 283.721 12.0046C283.97 13.3268 284.109 14.6633 284.137 16.0035C284.144 16.6036 284.144 17.2482 284.144 17.8897C284.163 18.6843 284.163 19.4406 284.163 20.2031V64.5502C284.163 65.32 284.163 66.0712 284.144 66.8285C284.144 67.5176 284.144 68.1488 284.135 68.7985C284.107 70.1147 283.97 71.4274 283.726 72.726C283.503 73.9572 283.066 75.1507 282.433 76.2646C281.802 77.3504 280.981 78.3414 280.002 79.2009C279.024 80.0777 277.892 80.8093 276.651 81.3675C275.394 81.9312 274.047 82.3239 272.658 82.5325C271.178 82.7465 269.682 82.862 268.183 82.8781C267.481 82.8925 266.747 82.9008 266.034 82.9008L263.439 82.905L19.9776 82.9008Z" fill="black"/>
<path d="M69.4817 43.0149C69.5045 41.2466 69.9742 39.5129 70.8471 37.9749C71.72 36.437 72.9677 35.1448 74.4742 34.2186C73.5171 32.8519 72.2546 31.727 70.7869 30.9335C69.3191 30.1401 67.6865 29.6997 66.0188 29.6476C62.4613 29.2741 59.0125 31.7763 57.1996 31.7763C55.3517 31.7763 52.5606 29.6846 49.555 29.7465C47.6108 29.8093 45.7162 30.3746 44.0555 31.3874C42.3948 32.4002 41.0248 33.8258 40.079 35.5255C35.9818 42.6192 39.0379 53.0445 42.9627 58.7785C44.9264 61.5863 47.2213 64.7227 50.2242 64.6115C53.1627 64.4896 54.2602 62.7377 57.8072 62.7377C61.3214 62.7377 62.351 64.6115 65.4148 64.5407C68.568 64.4896 70.5546 61.7205 72.4494 58.8861C73.8603 56.8855 74.946 54.6743 75.6662 52.3346C73.8343 51.5598 72.271 50.2629 71.1712 48.6056C70.0715 46.9482 69.4839 45.0039 69.4817 43.0149V43.0149Z" fill="white"/>
<path d="M63.6948 25.8764C65.414 23.8126 66.261 21.1598 66.0559 18.4815C63.4293 18.7574 61.0031 20.0127 59.2606 21.9974C58.4087 22.967 57.7562 24.095 57.3404 25.3169C56.9247 26.5388 56.7538 27.8306 56.8376 29.1186C58.1514 29.1321 59.4511 28.8474 60.6389 28.2858C61.8267 27.7242 62.8715 26.9004 63.6948 25.8764Z" fill="white"/>
<path d="M106.627 57.5033H96.5987L94.1906 64.614H89.9432L99.4413 38.3062H103.854L113.352 64.614H109.033L106.627 57.5033ZM97.6373 54.2221H105.586L101.668 42.6819H101.558L97.6373 54.2221Z" fill="white"/>
<path d="M133.865 55.0248C133.865 60.9852 130.675 64.8146 125.861 64.8146C124.641 64.8784 123.428 64.5975 122.361 64.004C121.294 63.4106 120.415 62.5285 119.826 61.4589H119.735V70.9592H115.798V45.4335H119.609V48.6237H119.681C120.297 47.5592 121.191 46.6817 122.266 46.0846C123.342 45.4876 124.559 45.1932 125.788 45.2328C130.656 45.2328 133.865 49.0809 133.865 55.0248ZM129.818 55.0248C129.818 51.1415 127.812 48.5885 124.75 48.5885C121.742 48.5885 119.718 51.1953 119.718 55.0248C119.718 58.8894 121.742 61.4776 124.75 61.4776C127.812 61.4776 129.818 58.9432 129.818 55.0248Z" fill="white"/>
<path d="M154.976 55.0248C154.976 60.9852 151.786 64.8146 146.971 64.8146C145.752 64.8784 144.539 64.5975 143.472 64.004C142.404 63.4106 141.526 62.5285 140.937 61.4589H140.845V70.9592H136.908V45.4335H140.719V48.6237H140.792C141.408 47.5592 142.302 46.6818 143.377 46.0847C144.452 45.4876 145.67 45.1932 146.899 45.2328C151.767 45.2328 154.976 49.0809 154.976 55.0248ZM150.929 55.0248C150.929 51.1415 148.922 48.5885 145.86 48.5885C142.852 48.5885 140.829 51.1953 140.829 55.0248C140.829 58.8894 142.852 61.4776 145.86 61.4776C148.922 61.4776 150.929 58.9432 150.929 55.0248Z" fill="white"/>
<path d="M168.928 57.284C169.22 59.8928 171.754 61.6057 175.218 61.6057C178.536 61.6057 180.924 59.8927 180.924 57.5404C180.924 55.4984 179.484 54.2758 176.074 53.4379L172.665 52.6165C167.834 51.4497 165.591 49.1905 165.591 45.5244C165.591 40.9853 169.547 37.8676 175.164 37.8676C180.723 37.8676 184.534 40.9853 184.662 45.5244H180.688C180.45 42.899 178.28 41.3143 175.108 41.3143C171.936 41.3143 169.766 42.9177 169.766 45.2514C169.766 47.1113 171.152 48.2057 174.543 49.0435L177.442 49.7552C182.839 51.0317 185.082 53.1999 185.082 57.0479C185.082 61.9698 181.161 65.0524 174.926 65.0524C169.092 65.0524 165.153 62.0422 164.898 57.2838L168.928 57.284Z" fill="white"/>
<path d="M193.579 40.8944V45.4335H197.226V48.5513H193.579V59.1253C193.579 60.7679 194.309 61.5334 195.913 61.5334C196.346 61.5259 196.778 61.4955 197.208 61.4423V64.5415C196.487 64.6762 195.754 64.7372 195.021 64.7235C191.138 64.7235 189.623 63.265 189.623 59.5452V48.5513H186.834V45.4335H189.623V40.8944H193.579Z" fill="white"/>
<path d="M199.339 55.0248C199.339 48.9899 202.893 45.1977 208.435 45.1977C213.997 45.1977 217.534 48.9898 217.534 55.0248C217.534 61.0762 214.015 64.8519 208.435 64.8519C202.858 64.8519 199.339 61.0762 199.339 55.0248ZM213.523 55.0248C213.523 50.885 211.626 48.4417 208.435 48.4417C205.245 48.4417 203.35 50.9036 203.35 55.0248C203.35 59.1811 205.245 61.6058 208.435 61.6058C211.626 61.6058 213.523 59.1811 213.523 55.0248Z" fill="white"/>
<path d="M220.78 45.4335H224.535V48.6981H224.626C224.88 47.6785 225.478 46.7775 226.318 46.1464C227.158 45.5153 228.19 45.1927 229.24 45.2328C229.694 45.2312 230.146 45.2805 230.589 45.3797V49.0623C230.016 48.8872 229.419 48.8069 228.82 48.8244C228.248 48.8012 227.678 48.902 227.148 49.12C226.619 49.3379 226.143 49.6679 225.754 50.0871C225.364 50.5063 225.069 51.0049 224.891 51.5487C224.712 52.0925 224.653 52.6685 224.717 53.2372V64.6139H220.78L220.78 45.4335Z" fill="white"/>
<path d="M248.741 58.9804C248.211 62.4623 244.821 64.8519 240.482 64.8519C234.902 64.8519 231.439 61.1134 231.439 55.1158C231.439 49.0995 234.921 45.1977 240.317 45.1977C245.623 45.1977 248.96 48.843 248.96 54.6586V56.0075H235.413V56.2454C235.351 56.9513 235.439 57.6624 235.673 58.3315C235.906 59.0006 236.279 59.6124 236.767 60.1263C237.255 60.6401 237.847 61.0442 238.503 61.3118C239.159 61.5794 239.865 61.7043 240.573 61.6782C241.504 61.7654 242.437 61.5499 243.235 61.0638C244.033 60.5778 244.653 59.8471 245.003 58.9804L248.741 58.9804ZM235.432 53.2559H245.021C245.057 52.6212 244.96 51.986 244.739 51.3903C244.517 50.7945 244.174 50.2511 243.733 49.7939C243.291 49.3368 242.759 48.976 242.171 48.734C241.584 48.492 240.952 48.3742 240.317 48.3878C239.675 48.384 239.04 48.5072 238.447 48.7503C237.853 48.9934 237.314 49.3515 236.86 49.8041C236.406 50.2567 236.046 50.7947 235.801 51.3872C235.556 51.9796 235.43 52.6147 235.432 53.2559Z" fill="white"/>
<path d="M97.1439 18.5043C97.9693 18.445 98.7975 18.5697 99.5689 18.8693C100.34 19.169 101.036 19.6361 101.605 20.2369C102.174 20.8378 102.602 21.5575 102.859 22.344C103.116 23.1305 103.196 23.9644 103.092 24.7853C103.092 28.8237 100.909 31.1451 97.1439 31.1451H92.5779V18.5043H97.1439ZM94.5412 29.3574H96.9246C97.5144 29.3927 98.1046 29.296 98.6523 29.0743C99.2 28.8527 99.6915 28.5117 100.091 28.0763C100.49 27.6408 100.787 27.1217 100.961 26.5569C101.134 25.992 101.179 25.3956 101.093 24.8111C101.173 24.2288 101.123 23.6361 100.947 23.0754C100.771 22.5148 100.473 21.9999 100.075 21.5679C99.6764 21.1359 99.1873 20.7973 98.6427 20.5765C98.0981 20.3557 97.5113 20.258 96.9246 20.2906H94.5412V29.3574Z" fill="white"/>
<path d="M105.31 26.371C105.25 25.7441 105.321 25.1116 105.52 24.514C105.719 23.9165 106.041 23.367 106.464 22.901C106.888 22.435 107.404 22.0626 107.98 21.8078C108.556 21.553 109.179 21.4214 109.808 21.4214C110.438 21.4214 111.061 21.553 111.637 21.8078C112.213 22.0626 112.729 22.435 113.153 22.901C113.576 23.367 113.898 23.9165 114.097 24.514C114.295 25.1116 114.367 25.7441 114.307 26.371C114.368 26.9986 114.297 27.632 114.099 28.2305C113.901 28.8291 113.58 29.3795 113.156 29.8464C112.732 30.3134 112.215 30.6865 111.639 30.9419C111.062 31.1972 110.439 31.3292 109.808 31.3292C109.178 31.3292 108.554 31.1972 107.978 30.9419C107.401 30.6865 106.885 30.3134 106.461 29.8464C106.037 29.3795 105.716 28.8291 105.518 28.2305C105.319 27.632 105.249 26.9986 105.31 26.371ZM112.371 26.371C112.371 24.3032 111.442 23.094 109.812 23.094C108.175 23.094 107.254 24.3032 107.254 26.3711C107.254 28.4554 108.175 29.6554 109.812 29.6554C111.442 29.6554 112.371 28.4471 112.371 26.371Z" fill="white"/>
<path d="M126.267 31.1449H124.314L122.343 24.119H122.194L120.23 31.1449H118.296L115.666 21.6054H117.576L119.285 28.8846H119.426L121.387 21.6054H123.193L125.154 28.8846H125.303L127.004 21.6054H128.886L126.267 31.1449Z" fill="white"/>
<path d="M131.098 21.6054H132.91V23.1208H133.051C133.29 22.5765 133.692 22.1203 134.203 21.8156C134.713 21.5109 135.305 21.3731 135.898 21.4212C136.362 21.3863 136.828 21.4563 137.262 21.626C137.695 21.7957 138.085 22.0607 138.402 22.4015C138.719 22.7422 138.955 23.15 139.093 23.5945C139.232 24.039 139.268 24.5089 139.2 24.9693V31.1448H137.317V25.4421C137.317 23.9091 136.651 23.1467 135.259 23.1467C134.943 23.132 134.629 23.1856 134.336 23.3039C134.044 23.4222 133.78 23.6023 133.564 23.8319C133.348 24.0616 133.184 24.3352 133.083 24.6342C132.982 24.9332 132.947 25.2504 132.981 25.5642V31.1449H131.098L131.098 21.6054Z" fill="white"/>
<path d="M142.2 17.8814H144.082V31.1449H142.2V17.8814Z" fill="white"/>
<path d="M146.699 26.371C146.639 25.7441 146.711 25.1115 146.91 24.5139C147.109 23.9163 147.43 23.3669 147.854 22.9009C148.278 22.4348 148.794 22.0624 149.37 21.8076C149.946 21.5528 150.569 21.4212 151.199 21.4212C151.828 21.4212 152.451 21.5528 153.027 21.8076C153.603 22.0624 154.12 22.4348 154.543 22.9009C154.967 23.3669 155.288 23.9163 155.487 24.5139C155.686 25.1115 155.758 25.7441 155.698 26.371C155.759 26.9986 155.688 27.632 155.49 28.2305C155.291 28.8291 154.97 29.3795 154.546 29.8464C154.123 30.3134 153.606 30.6865 153.029 30.9418C152.453 31.1972 151.829 31.3291 151.199 31.3291C150.568 31.3291 149.945 31.1972 149.368 30.9418C148.792 30.6865 148.275 30.3134 147.851 29.8464C147.427 29.3795 147.106 28.8291 146.908 28.2305C146.709 27.632 146.638 26.9986 146.699 26.371ZM153.76 26.371C153.76 24.3032 152.831 23.094 151.201 23.094C149.565 23.094 148.644 24.3032 148.644 26.3711C148.644 28.4554 149.565 29.6554 151.201 29.6554C152.832 29.6554 153.76 28.4471 153.76 26.371Z" fill="white"/>
<path d="M157.68 28.4471C157.68 26.73 158.958 25.74 161.228 25.5993L163.812 25.4504V24.627C163.812 23.6194 163.146 23.0505 161.859 23.0505C160.808 23.0505 160.08 23.4364 159.871 24.1108H158.048C158.241 22.4723 159.782 21.4213 161.946 21.4213C164.338 21.4213 165.686 22.6119 165.686 24.627V31.1449H163.874V29.8043H163.725C163.423 30.2852 162.998 30.6772 162.495 30.9404C161.991 31.2035 161.427 31.3284 160.86 31.3021C160.459 31.3438 160.055 31.301 159.672 31.1767C159.289 31.0523 158.936 30.8491 158.636 30.5801C158.337 30.3111 158.097 29.9824 157.932 29.615C157.767 29.2476 157.681 28.8498 157.68 28.4471ZM163.812 27.632V26.8345L161.482 26.9834C160.169 27.0713 159.573 27.5182 159.573 28.3592C159.573 29.2178 160.318 29.7174 161.342 29.7174C161.642 29.7478 161.945 29.7175 162.233 29.6283C162.521 29.5391 162.789 29.3929 163.019 29.1984C163.25 29.0038 163.438 28.7648 163.575 28.4958C163.711 28.2267 163.792 27.9329 163.812 27.632Z" fill="white"/>
<path d="M168.161 26.371C168.161 23.3567 169.71 21.4471 172.121 21.4471C172.717 21.4197 173.308 21.5625 173.826 21.8588C174.345 22.1552 174.767 22.5929 175.046 23.1208H175.187V17.8814H177.069V31.1449H175.265V29.6377H175.116C174.816 30.162 174.379 30.5943 173.851 30.8877C173.323 31.181 172.724 31.3244 172.121 31.3021C169.694 31.3022 168.161 29.3926 168.161 26.371ZM170.106 26.371C170.106 28.3944 171.059 29.6119 172.654 29.6119C174.241 29.6119 175.222 28.3768 175.222 26.3793C175.222 24.3911 174.231 23.1384 172.654 23.1384C171.07 23.1384 170.106 24.3642 170.106 26.371Z" fill="white"/>
<path d="M184.859 26.371C184.799 25.7441 184.87 25.1116 185.069 24.514C185.268 23.9165 185.589 23.367 186.013 22.901C186.437 22.435 186.953 22.0626 187.529 21.8078C188.105 21.553 188.728 21.4214 189.357 21.4214C189.987 21.4214 190.61 21.553 191.186 21.8078C191.762 22.0626 192.278 22.435 192.702 22.901C193.125 23.367 193.447 23.9165 193.646 24.514C193.844 25.1116 193.916 25.7441 193.856 26.371C193.917 26.9986 193.846 27.632 193.648 28.2305C193.45 28.8291 193.128 29.3795 192.705 29.8464C192.281 30.3134 191.764 30.6865 191.188 30.9419C190.611 31.1972 189.988 31.3292 189.357 31.3292C188.727 31.3292 188.103 31.1972 187.527 30.9419C186.95 30.6865 186.434 30.3134 186.01 29.8464C185.586 29.3795 185.265 28.8291 185.067 28.2305C184.868 27.632 184.797 26.9986 184.859 26.371ZM191.92 26.371C191.92 24.3032 190.991 23.094 189.36 23.094C187.724 23.094 186.803 24.3032 186.803 26.3711C186.803 28.4554 187.724 29.6554 189.36 29.6554C190.991 29.6554 191.92 28.4471 191.92 26.371Z" fill="white"/>
<path d="M196.382 21.6054H198.194V23.1208H198.335C198.574 22.5765 198.976 22.1203 199.487 21.8156C199.997 21.5109 200.59 21.3731 201.182 21.4212C201.646 21.3863 202.112 21.4563 202.546 21.626C202.979 21.7957 203.369 22.0607 203.686 22.4015C204.003 22.7422 204.239 23.15 204.378 23.5945C204.516 24.039 204.552 24.5089 204.484 24.9693V31.1448H202.601V25.4421C202.601 23.9091 201.935 23.1467 200.543 23.1467C200.228 23.132 199.913 23.1856 199.62 23.3039C199.328 23.4222 199.065 23.6023 198.848 23.8319C198.632 24.0616 198.468 24.3352 198.367 24.6342C198.266 24.9332 198.231 25.2504 198.265 25.5642V31.1449H196.382V21.6054Z" fill="white"/>
<path d="M215.122 19.2303V21.6488H217.189V23.2346H215.122V28.1399C215.122 29.1392 215.534 29.5767 216.471 29.5767C216.711 29.576 216.951 29.5615 217.189 29.5333V31.1015C216.851 31.162 216.508 31.1941 216.165 31.1977C214.071 31.1977 213.237 30.4612 213.237 28.6219V23.2345H211.723V21.6487H213.237V19.2303H215.122Z" fill="white"/>
<path d="M219.76 17.8814H221.626V23.1384H221.775C222.026 22.589 222.439 22.1302 222.96 21.8244C223.48 21.5186 224.082 21.3807 224.684 21.4295C225.146 21.4044 225.608 21.4815 226.036 21.6553C226.465 21.8291 226.849 22.0953 227.163 22.435C227.477 22.7747 227.712 23.1794 227.851 23.6204C227.991 24.0613 228.031 24.5276 227.97 24.9859V31.1449H226.085V25.4503C226.085 23.9266 225.375 23.1549 224.045 23.1549C223.721 23.1284 223.396 23.1729 223.091 23.2853C222.787 23.3977 222.51 23.5753 222.282 23.8056C222.053 24.036 221.877 24.3136 221.767 24.6189C221.657 24.9243 221.614 25.25 221.643 25.5734V31.1449H219.76L219.76 17.8814Z" fill="white"/>
<path d="M238.947 28.5692C238.691 29.441 238.137 30.1952 237.381 30.6997C236.626 31.2042 235.717 31.427 234.813 31.329C234.185 31.3456 233.56 31.2253 232.983 30.9763C232.406 30.7273 231.89 30.3557 231.47 29.8872C231.051 29.4187 230.739 28.8646 230.555 28.2633C230.371 27.662 230.321 27.028 230.407 26.4052C230.323 25.7804 230.375 25.145 230.558 24.5419C230.741 23.9389 231.052 23.3822 231.469 22.9096C231.886 22.437 232.4 22.0596 232.975 21.8028C233.551 21.546 234.175 21.4159 234.805 21.4213C237.46 21.4213 239.061 23.2347 239.061 26.2303V26.8872H232.325V26.9927C232.295 27.3428 232.339 27.6952 232.454 28.0273C232.568 28.3593 232.751 28.6638 232.99 28.9211C233.23 29.1784 233.52 29.3829 233.843 29.5214C234.166 29.66 234.514 29.7295 234.865 29.7256C235.315 29.7797 235.772 29.6986 236.176 29.4927C236.58 29.2867 236.914 28.9653 237.135 28.5691L238.947 28.5692ZM232.325 25.4949H237.143C237.167 25.1747 237.123 24.8531 237.015 24.5507C236.907 24.2484 236.737 23.972 236.516 23.7392C236.295 23.5065 236.028 23.3226 235.731 23.1994C235.435 23.0761 235.116 23.0162 234.795 23.0236C234.469 23.0195 234.146 23.0806 233.844 23.2034C233.543 23.3262 233.269 23.5081 233.039 23.7384C232.808 23.9687 232.627 24.2427 232.504 24.5444C232.381 24.8461 232.32 25.1692 232.325 25.4949Z" fill="white"/>
</g>
<defs>
<clipPath id="clip0_5_1355">
<rect width="286" height="84.7407" fill="white" transform="translate(0 0.00744629)"/>
</clipPath>
</defs>
</svg>
