<svg width="286" height="85" viewBox="0 0 286 85" fill="none" xmlns="http://www.w3.org/2000/svg">
<g clip-path="url(#clip0_5_1354)">
<path d="M275.407 0H10.5926C4.74247 0 0 4.74247 0 10.5926V74.1481C0 79.9983 4.74247 84.7407 10.5926 84.7407H275.407C281.258 84.7407 286 79.9983 286 74.1481V10.5926C286 4.74247 281.258 0 275.407 0Z" fill="black"/>
<path d="M275.407 1.69485C277.766 1.69757 280.028 2.63596 281.696 4.30412C283.364 5.97228 284.302 8.234 284.305 10.5931V74.1486C284.302 76.5077 283.364 78.7693 281.696 80.4375C280.028 82.1057 277.766 83.0441 275.407 83.0468H10.5926C8.23352 83.0441 5.97185 82.1057 4.30377 80.4376C2.63569 78.7694 1.69742 76.5077 1.69481 74.1486V10.5931C1.69738 8.23396 2.63564 5.97223 4.30372 4.30406C5.97181 2.63589 8.2335 1.69753 10.5926 1.69485H275.407ZM275.407 0.000457764H10.5926C7.78579 0.00867359 5.09629 1.12731 3.11157 3.11203C1.12686 5.09675 0.00821582 7.78625 0 10.5931L0 74.1486C0.00821582 76.9554 1.12686 79.6449 3.11157 81.6296C5.09629 83.6143 7.78579 84.733 10.5926 84.7412H275.407C278.214 84.733 280.904 83.6143 282.888 81.6296C284.873 79.6449 285.992 76.9554 286 74.1486V10.5931C285.992 7.78625 284.873 5.09675 282.888 3.11203C280.904 1.12731 278.214 0.00867359 275.407 0.000457764V0.000457764Z" fill="#A6A6A6"/>
<path d="M100.457 21.7006C100.495 22.478 100.375 23.2551 100.104 23.9846C99.8323 24.7141 99.4153 25.3807 98.878 25.9438C98.2759 26.5683 97.5488 27.0586 96.7441 27.3827C95.9395 27.7067 95.0755 27.8573 94.2086 27.8244C93.3362 27.8322 92.4711 27.6656 91.6641 27.3343C90.857 27.003 90.1244 26.5137 89.5091 25.8951C88.8939 25.2766 88.4085 24.5413 88.0815 23.7325C87.7545 22.9237 87.5925 22.0577 87.605 21.1854C87.5926 20.3131 87.7547 19.4471 88.0817 18.6383C88.4087 17.8295 88.8941 17.0942 89.5093 16.4756C90.1245 15.857 90.8571 15.3676 91.6641 15.0361C92.4711 14.7046 93.3362 14.5378 94.2086 14.5454C95.1056 14.5426 95.9935 14.724 96.8176 15.0782C97.5829 15.3884 98.2641 15.875 98.8058 16.4984L97.6885 17.6166C97.2627 17.1154 96.7275 16.7188 96.1241 16.4573C95.5208 16.1958 94.8654 16.0765 94.2086 16.1084C93.5475 16.105 92.8924 16.235 92.2827 16.4908C91.673 16.7465 91.1212 17.1226 90.6603 17.5967C90.1994 18.0707 89.839 18.6329 89.6005 19.2495C89.362 19.8662 89.2504 20.5246 89.2725 21.1854C89.2567 22.1752 89.5352 23.1473 90.0727 23.9786C90.6101 24.8099 91.3824 25.4628 92.2914 25.8546C93.2004 26.2465 94.2054 26.3595 95.1787 26.1795C96.1521 25.9994 97.0501 25.5343 97.7588 24.8433C98.4111 24.1404 98.7892 23.2266 98.8242 22.2684H94.2086V20.7416H100.368C100.426 21.058 100.456 21.3789 100.457 21.7006Z" fill="white"/>
<path d="M110.222 16.3919H104.433V20.4219H109.653V21.9489H104.433V25.979H110.222V27.541H102.801V14.8299H110.222V16.3919Z" fill="white"/>
<path d="M117.109 27.541H115.475V16.3919H111.924V14.8299H120.659V16.3919H117.109V27.541Z" fill="white"/>
<path d="M126.98 27.541V14.8299H128.612V27.541H126.98Z" fill="white"/>
<path d="M135.857 27.541H134.223V16.3919H130.673V14.8299H139.407V16.3919H135.857V27.541Z" fill="white"/>
<path d="M155.943 25.8983C154.705 27.1318 153.03 27.8244 151.283 27.8244C149.535 27.8244 147.86 27.1318 146.622 25.8983C146.01 25.2783 145.529 24.5417 145.208 23.732C144.886 22.9224 144.73 22.0564 144.75 21.1854C144.73 20.3145 144.886 19.4484 145.208 18.6388C145.529 17.8292 146.01 17.0925 146.622 16.4726C147.234 15.8609 147.96 15.3758 148.759 15.0451C149.559 14.7144 150.415 14.5446 151.28 14.5454C152.145 14.5461 153.001 14.7175 153.8 15.0496C154.599 15.3817 155.324 15.8681 155.934 16.4808C156.547 17.0991 157.029 17.8342 157.352 18.6423C157.675 19.4505 157.833 20.3153 157.815 21.1854C157.834 22.0563 157.678 22.9222 157.357 23.7317C157.035 24.5413 156.554 25.278 155.943 25.8983ZM147.829 24.8339C148.745 25.7487 149.987 26.2625 151.282 26.2625C152.576 26.2625 153.818 25.7487 154.734 24.8339C155.204 24.3529 155.572 23.7815 155.815 23.1544C156.058 22.5273 156.171 21.8575 156.148 21.1854C156.171 20.5133 156.058 19.8435 155.815 19.2164C155.572 18.5893 155.204 18.018 154.734 17.5369C153.818 16.6221 152.576 16.1084 151.282 16.1084C149.987 16.1084 148.745 16.6221 147.829 17.5369C147.359 18.0184 146.992 18.5898 146.75 19.2169C146.507 19.8439 146.394 20.5135 146.418 21.1854C146.394 21.8573 146.507 22.5269 146.75 23.154C146.992 23.781 147.359 24.3525 147.829 24.8339Z" fill="white"/>
<path d="M160.107 27.541V14.8299H162.095L168.273 24.7181H168.343L168.273 22.2684V14.8299H169.908V27.541H168.203L161.74 17.1738H161.669L161.74 19.6234V27.541H160.107Z" fill="white"/>
<path d="M100.457 21.7006C100.495 22.478 100.375 23.2551 100.104 23.9846C99.8323 24.7141 99.4153 25.3807 98.878 25.9438C98.2759 26.5683 97.5488 27.0586 96.7441 27.3827C95.9395 27.7067 95.0755 27.8573 94.2086 27.8244C93.3362 27.8322 92.4711 27.6656 91.6641 27.3343C90.857 27.003 90.1244 26.5137 89.5091 25.8951C88.8939 25.2766 88.4085 24.5413 88.0815 23.7325C87.7545 22.9237 87.5925 22.0577 87.605 21.1854C87.5926 20.3131 87.7547 19.4471 88.0817 18.6383C88.4087 17.8295 88.8941 17.0942 89.5093 16.4756C90.1245 15.857 90.8571 15.3676 91.6641 15.0361C92.4711 14.7046 93.3362 14.5378 94.2086 14.5454C95.1056 14.5426 95.9935 14.724 96.8176 15.0782C97.5829 15.3884 98.2641 15.875 98.8058 16.4984L97.6885 17.6166C97.2627 17.1154 96.7275 16.7188 96.1241 16.4573C95.5208 16.1958 94.8654 16.0765 94.2086 16.1084C93.5475 16.105 92.8924 16.235 92.2827 16.4908C91.673 16.7465 91.1212 17.1226 90.6603 17.5967C90.1994 18.0707 89.839 18.6329 89.6005 19.2495C89.362 19.8662 89.2504 20.5246 89.2725 21.1854C89.2567 22.1752 89.5352 23.1473 90.0727 23.9786C90.6101 24.8099 91.3824 25.4628 92.2914 25.8546C93.2004 26.2465 94.2054 26.3595 95.1787 26.1795C96.1521 25.9994 97.0501 25.5343 97.7588 24.8433C98.4111 24.1404 98.7892 23.2266 98.8242 22.2684H94.2086V20.7416H100.368C100.426 21.058 100.456 21.3789 100.457 21.7006Z" stroke="white" stroke-width="0.423704" stroke-miterlimit="10"/>
<path d="M110.222 16.3919H104.433V20.4219H109.653V21.9489H104.433V25.979H110.222V27.541H102.801V14.8299H110.222V16.3919Z" stroke="white" stroke-width="0.423704" stroke-miterlimit="10"/>
<path d="M117.109 27.541H115.475V16.3919H111.924V14.8299H120.659V16.3919H117.109V27.541Z" stroke="white" stroke-width="0.423704" stroke-miterlimit="10"/>
<path d="M126.98 27.541V14.8299H128.612V27.541H126.98Z" stroke="white" stroke-width="0.423704" stroke-miterlimit="10"/>
<path d="M135.857 27.541H134.223V16.3919H130.673V14.8299H139.407V16.3919H135.857V27.541Z" stroke="white" stroke-width="0.423704" stroke-miterlimit="10"/>
<path d="M155.943 25.8983C154.705 27.1318 153.03 27.8244 151.283 27.8244C149.535 27.8244 147.86 27.1318 146.622 25.8983C146.01 25.2783 145.529 24.5417 145.208 23.732C144.886 22.9224 144.73 22.0564 144.75 21.1854C144.73 20.3145 144.886 19.4484 145.208 18.6388C145.529 17.8292 146.01 17.0925 146.622 16.4726C147.234 15.8609 147.96 15.3758 148.759 15.0451C149.559 14.7144 150.415 14.5446 151.28 14.5454C152.145 14.5461 153.001 14.7175 153.8 15.0496C154.599 15.3817 155.324 15.8681 155.934 16.4808C156.547 17.0991 157.029 17.8342 157.352 18.6423C157.675 19.4505 157.833 20.3153 157.815 21.1854C157.834 22.0563 157.678 22.9222 157.357 23.7317C157.035 24.5413 156.554 25.278 155.943 25.8983ZM147.829 24.8339C148.745 25.7487 149.987 26.2625 151.282 26.2625C152.576 26.2625 153.818 25.7487 154.734 24.8339C155.204 24.3529 155.572 23.7815 155.815 23.1544C156.058 22.5273 156.171 21.8575 156.148 21.1854C156.171 20.5133 156.058 19.8435 155.815 19.2164C155.572 18.5893 155.204 18.018 154.734 17.5369C153.818 16.6221 152.576 16.1084 151.282 16.1084C149.987 16.1084 148.745 16.6221 147.829 17.5369C147.359 18.0184 146.992 18.5898 146.75 19.2169C146.507 19.8439 146.394 20.5135 146.418 21.1854C146.394 21.8573 146.507 22.5269 146.75 23.154C146.992 23.781 147.359 24.3525 147.829 24.8339Z" stroke="white" stroke-width="0.423704" stroke-miterlimit="10"/>
<path d="M160.107 27.541V14.8299H162.095L168.273 24.7181H168.343L168.273 22.2684V14.8299H169.908V27.541H168.203L161.74 17.1738H161.669L161.74 19.6234V27.541H160.107Z" stroke="white" stroke-width="0.423704" stroke-miterlimit="10"/>
<path d="M144.347 46.0814C142.566 46.0882 140.828 46.6223 139.35 47.6165C137.873 48.6107 136.724 50.0203 136.047 51.6673C135.37 53.3144 135.197 55.125 135.548 56.8706C135.9 58.6162 136.76 60.2185 138.022 61.4752C139.283 62.7319 140.889 63.5867 142.636 63.9316C144.383 64.2765 146.193 64.096 147.837 63.413C149.482 62.73 150.887 61.5751 151.875 60.0941C152.864 58.6131 153.392 56.8723 153.392 55.0917C153.409 53.9007 153.187 52.7184 152.738 51.615C152.289 50.5117 151.623 49.5099 150.779 48.6692C149.935 47.8286 148.931 47.1663 147.826 46.7217C146.721 46.2771 145.538 46.0594 144.347 46.0814V46.0814ZM144.347 60.5526C143.25 60.6308 142.156 60.377 141.205 59.8243C140.255 59.2716 139.493 58.4456 139.019 57.4538C138.544 56.462 138.38 55.3504 138.546 54.2636C138.712 53.1769 139.202 52.1654 139.951 51.3609C140.7 50.5563 141.674 49.996 142.747 49.7528C143.819 49.5096 144.939 49.5948 145.962 49.9974C146.985 50.3999 147.863 51.1012 148.482 52.0098C149.101 52.9184 149.432 53.9923 149.432 55.0917C149.466 55.7862 149.36 56.4804 149.121 57.1333C148.881 57.7863 148.514 58.3848 148.04 58.8937C147.566 59.4025 146.996 59.8114 146.361 60.0963C145.727 60.3812 145.042 60.5364 144.347 60.5526V60.5526ZM124.616 46.0814C122.836 46.0881 121.097 46.6223 119.62 47.6164C118.142 48.6106 116.993 50.0202 116.316 51.6672C115.639 53.3142 115.466 55.1249 115.817 56.8705C116.169 58.6161 117.03 60.2184 118.291 61.4752C119.553 62.7319 121.158 63.5867 122.905 63.9316C124.652 64.2765 126.462 64.0961 128.106 63.4131C129.751 62.7301 131.156 61.5751 132.145 60.0941C133.133 58.6131 133.661 56.8723 133.661 55.0917C133.678 53.9007 133.456 52.7184 133.007 51.6151C132.559 50.5117 131.892 49.5099 131.049 48.6693C130.205 47.8287 129.2 47.1663 128.095 46.7218C126.99 46.2772 125.807 46.0594 124.616 46.0814V46.0814ZM124.616 60.5526C123.52 60.6308 122.425 60.377 121.475 59.8243C120.524 59.2716 119.762 58.4456 119.288 57.4538C118.814 56.462 118.649 55.3504 118.815 54.2636C118.982 53.1769 119.471 52.1654 120.221 51.3609C120.97 50.5563 121.944 49.996 123.016 49.7528C124.088 49.5096 125.209 49.5948 126.232 49.9974C127.255 50.3999 128.133 51.1012 128.752 52.0098C129.371 52.9184 129.702 53.9923 129.702 55.0917C129.735 55.7862 129.629 56.4804 129.39 57.1334C129.151 57.7863 128.784 58.3848 128.31 58.8937C127.836 59.4026 127.265 59.8115 126.631 60.0964C125.996 60.3813 125.312 60.5364 124.616 60.5526ZM101.146 48.8461V52.6685H110.293C110.161 54.4614 109.427 56.1572 108.211 57.4809C107.294 58.4153 106.192 59.1471 104.975 59.6291C103.758 60.1111 102.454 60.3327 101.146 60.2795C98.4721 60.2433 95.9203 59.1558 94.0424 57.2524C92.1646 55.3489 91.1117 52.7826 91.1117 50.1087C91.1117 47.4349 92.1646 44.8685 94.0424 42.9651C95.9203 41.0616 98.4721 39.9741 101.146 39.9379C103.714 39.9044 106.191 40.8855 108.04 42.6683L110.736 39.972C109.475 38.7232 107.977 37.7388 106.33 37.0765C104.683 36.4142 102.921 36.0874 101.146 36.1153C99.291 36.0883 97.4493 36.4303 95.7279 37.1214C94.0064 37.8125 92.4396 38.8389 91.1184 40.141C89.7972 41.4431 88.7481 42.9949 88.032 44.7061C87.3159 46.4172 86.9471 48.2537 86.9471 50.1087C86.9471 51.9637 87.3159 53.8002 88.032 55.5114C88.7481 57.2225 89.7972 58.7743 91.1184 60.0764C92.4396 61.3785 94.0064 62.4049 95.7279 63.096C97.4493 63.7872 99.291 64.1292 101.146 64.1022C102.958 64.1773 104.766 63.8662 106.449 63.1895C108.131 62.5128 109.651 61.486 110.907 60.1772C113.137 57.7436 114.325 54.5339 114.218 51.2351C114.227 50.434 114.158 49.634 114.013 48.8461H101.146ZM197.132 51.8152C196.591 50.1831 195.56 48.7574 194.18 47.7315C192.8 46.7057 191.138 46.1296 189.419 46.0814C188.261 46.0886 187.117 46.3305 186.055 46.7924C184.994 47.2543 184.037 47.9267 183.242 48.7689C182.448 49.6111 181.833 50.6056 181.434 51.6924C181.035 52.7791 180.86 53.9355 180.92 55.0917C180.894 56.2763 181.107 57.4541 181.547 58.5545C181.986 59.655 182.642 60.6557 183.477 61.4967C184.312 62.3378 185.307 63.002 186.405 63.4496C187.502 63.8973 188.678 64.1192 189.863 64.1022C191.347 64.1104 192.81 63.7498 194.121 63.0528C195.431 62.3558 196.548 61.3443 197.371 60.109L194.299 58.0612C193.839 58.8254 193.188 59.4569 192.41 59.8937C191.633 60.3304 190.755 60.5575 189.863 60.5526C188.945 60.5877 188.037 60.3461 187.258 59.8593C186.479 59.3724 185.864 58.6627 185.494 57.8222L197.542 52.8393L197.132 51.8152ZM184.845 54.8188C184.803 54.163 184.892 53.5053 185.107 52.8843C185.321 52.2632 185.658 51.6912 186.097 51.2018C186.535 50.7123 187.067 50.3153 187.661 50.0339C188.255 49.7524 188.899 49.5923 189.555 49.5628C190.239 49.5178 190.92 49.675 191.515 50.0149C192.11 50.3548 192.592 50.8623 192.9 51.4741L184.845 54.8188ZM175.05 63.556H179.009V37.0711H175.05V63.556ZM168.565 48.0951H168.429C167.827 47.4411 167.092 46.9232 166.274 46.5759C165.456 46.2287 164.573 46.0601 163.684 46.0814C161.361 46.1803 159.166 47.1728 157.557 48.8518C155.948 50.5307 155.049 52.7663 155.049 55.0918C155.049 57.4173 155.948 59.6528 157.557 61.3318C159.166 63.0108 161.361 64.0033 163.684 64.1022C164.576 64.1259 165.463 63.955 166.282 63.6014C167.102 63.2477 167.834 62.7198 168.429 62.0544H168.565V63.3514C168.565 66.7986 166.722 68.6415 163.753 68.6415C162.763 68.6178 161.803 68.3 160.994 67.7287C160.186 67.1573 159.566 66.3582 159.213 65.4332L155.766 66.8668C156.416 68.4487 157.523 69.8005 158.946 70.7491C160.369 71.6976 162.043 72.1998 163.753 72.1911C168.395 72.1911 172.319 69.4607 172.319 62.8052V46.6273H168.565V48.0951ZM164.026 60.5526C162.657 60.4365 161.382 59.811 160.453 58.7997C159.524 57.7884 159.009 56.4651 159.009 55.0918C159.009 53.7184 159.524 52.3952 160.453 51.3839C161.382 50.3726 162.657 49.747 164.026 49.631C164.707 49.6642 165.374 49.8342 165.988 50.1308C166.601 50.4273 167.149 50.8444 167.598 51.3572C168.047 51.87 168.388 52.4679 168.601 53.1154C168.814 53.7628 168.895 54.4465 168.838 55.1258C168.891 55.8008 168.808 56.4796 168.593 57.1217C168.378 57.7637 168.035 58.3557 167.586 58.8623C167.137 59.369 166.59 59.7798 165.978 60.0702C165.366 60.3606 164.702 60.5247 164.026 60.5526V60.5526ZM215.678 37.0716H206.205V63.556H210.158V53.5219H215.678C216.796 53.5831 217.914 53.4159 218.966 53.0302C220.017 52.6445 220.978 52.0486 221.792 51.2788C222.605 50.509 223.252 49.5815 223.695 48.553C224.138 47.5244 224.366 46.4164 224.366 45.2967C224.366 44.177 224.138 43.069 223.695 42.0404C223.252 41.0119 222.605 40.0844 221.792 39.3146C220.978 38.5448 220.017 37.9489 218.966 37.5632C217.914 37.1776 216.796 37.0103 215.678 37.0716V37.0716ZM215.78 49.8361H210.158V40.7576H215.78C216.384 40.7451 216.984 40.8532 217.546 41.0757C218.107 41.2982 218.619 41.6306 219.051 42.0533C219.482 42.4761 219.825 42.9807 220.059 43.5376C220.293 44.0946 220.414 44.6927 220.414 45.2968C220.414 45.901 220.293 46.499 220.059 47.056C219.825 47.6129 219.482 48.1176 219.051 48.5403C218.619 48.9631 218.107 49.2954 217.546 49.5179C216.984 49.7404 216.384 49.8486 215.78 49.8361V49.8361ZM240.21 46.0327C238.767 45.9484 237.331 46.2873 236.078 47.0075C234.825 47.7278 233.81 48.7982 233.157 50.0873L236.666 51.5525C237.014 50.9126 237.541 50.3881 238.182 50.0432C238.824 49.6982 239.552 49.5477 240.278 49.6102C241.281 49.5123 242.281 49.816 243.06 50.4547C243.84 51.0934 244.334 52.015 244.435 53.0174V53.2901C243.165 52.6157 241.749 52.2646 240.312 52.2679C236.53 52.2679 232.68 54.3464 232.68 58.2307C232.716 59.0493 232.917 59.8522 233.27 60.5917C233.623 61.3312 234.121 61.9923 234.734 62.5357C235.348 63.0792 236.064 63.4938 236.841 63.7552C237.617 64.0165 238.438 64.1191 239.256 64.057C240.251 64.1156 241.244 63.9063 242.131 63.4509C243.018 62.9955 243.766 62.3106 244.298 61.4676H244.435V63.5119H248.251V53.3583C248.251 48.6563 244.741 46.0327 240.21 46.0327V46.0327ZM239.733 60.5475C238.438 60.5475 236.632 59.9003 236.632 58.2987C236.632 56.2545 238.881 55.4707 240.823 55.4707C242.085 55.4371 243.332 55.7431 244.435 56.3566C244.29 57.5054 243.733 58.5627 242.869 59.3331C242.005 60.1035 240.89 60.5349 239.733 60.5475V60.5475ZM262.153 46.6119L257.621 58.0943H257.484L252.783 46.6119H248.523L255.576 62.6601L251.556 71.5871H255.679L266.548 46.6119H262.153ZM226.547 63.556H230.499V37.0716H226.547V63.556Z" fill="white"/>
<path d="M22.1074 15.9696C21.4127 16.8002 21.0619 17.865 21.127 18.9459V65.7992C21.0618 66.8801 21.4126 67.945 22.1074 68.7756L22.2642 68.9283L48.5105 42.6822V42.0629L22.2642 15.8158L22.1074 15.9696Z" fill="url(#paint0_linear_5_1354)"/>
<path d="M57.2587 51.4346L48.5105 42.6822V42.063L57.2608 33.3126L57.4581 33.4251L67.8235 39.3148C70.7844 40.9969 70.7844 43.7493 67.8235 45.4325L57.4581 51.3221L57.2587 51.4346Z" fill="url(#paint1_linear_5_1354)"/>
<path d="M57.458 51.3211L48.5105 42.3727L22.1074 68.7756C22.7106 69.3077 23.4811 69.612 24.2851 69.6357C25.0892 69.6595 25.8762 69.4012 26.5099 68.9057L57.458 51.3211Z" fill="url(#paint2_linear_5_1354)"/>
<path d="M57.458 33.4241L26.5099 15.8395C25.8762 15.344 25.0892 15.0857 24.2851 15.1095C23.4811 15.1332 22.7106 15.4375 22.1074 15.9696L48.5105 42.3727L57.458 33.4241Z" fill="url(#paint3_linear_5_1354)"/>
<path opacity="0.2" d="M57.2608 51.1241L26.5099 68.5961C25.9006 69.0599 25.157 69.313 24.3913 69.3171C23.6256 69.3212 22.8794 69.0761 22.2652 68.6188L22.1074 68.7766L22.2641 68.9294L22.2652 68.9283C22.8793 69.3858 23.6256 69.6311 24.3913 69.627C25.1571 69.6229 25.9007 69.3697 26.5099 68.9056L57.458 51.3211L57.2608 51.1241Z" fill="black"/>
<path opacity="0.12" d="M22.1074 68.4671C21.4127 67.6364 21.062 66.5716 21.1269 65.4908V65.8003C21.0619 66.8812 21.4127 67.946 22.1074 68.7766L22.2652 68.6188L22.1074 68.4671Z" fill="black"/>
<path opacity="0.12" d="M67.8235 45.1219L57.2608 51.1241L57.458 51.3211L67.8235 45.4314C68.4333 45.1668 68.9609 44.7435 69.3515 44.2057C69.7421 43.6679 69.9814 43.0352 70.0444 42.3735C69.9133 42.9727 69.6443 43.5332 69.2588 44.0102C68.8733 44.4873 68.3819 44.868 67.8235 45.1219V45.1219Z" fill="black"/>
<path opacity="0.25" d="M26.51 16.1501L67.8236 39.6232C68.3822 39.8771 68.8738 40.2579 69.2593 40.7352C69.6449 41.2125 69.9137 41.7732 70.0445 42.3727C69.9819 41.7107 69.7428 41.0777 69.3522 40.5396C68.9615 40.0016 68.4336 39.5782 67.8236 39.3137L26.51 15.8405C23.5491 14.1582 21.127 15.5556 21.127 18.9469V19.2564C21.127 15.8653 23.5491 14.468 26.51 16.1501Z" fill="white"/>
</g>
<defs>
<linearGradient id="paint0_linear_5_1354" x1="46.183" y1="18.4519" x2="10.6291" y2="54.0057" gradientUnits="userSpaceOnUse">
<stop stop-color="#00A0FF"/>
<stop offset="0.00657" stop-color="#00A1FF"/>
<stop offset="0.2601" stop-color="#00BEFF"/>
<stop offset="0.5122" stop-color="#00D2FF"/>
<stop offset="0.7604" stop-color="#00DFFF"/>
<stop offset="1" stop-color="#00E3FF"/>
</linearGradient>
<linearGradient id="paint1_linear_5_1354" x1="71.6786" y1="42.3736" x2="20.417" y2="42.3736" gradientUnits="userSpaceOnUse">
<stop stop-color="#FFE000"/>
<stop offset="0.4087" stop-color="#FFBD00"/>
<stop offset="0.7754" stop-color="#FFA500"/>
<stop offset="1" stop-color="#FF9C00"/>
</linearGradient>
<linearGradient id="paint2_linear_5_1354" x1="52.5961" y1="47.2349" x2="4.38229" y2="95.4488" gradientUnits="userSpaceOnUse">
<stop stop-color="#FF3A44"/>
<stop offset="1" stop-color="#C31162"/>
</linearGradient>
<linearGradient id="paint3_linear_5_1354" x1="15.4593" y1="0.37344" x2="36.9888" y2="21.9029" gradientUnits="userSpaceOnUse">
<stop stop-color="#32A071"/>
<stop offset="0.0685" stop-color="#2DA771"/>
<stop offset="0.4762" stop-color="#15CF74"/>
<stop offset="0.8009" stop-color="#06E775"/>
<stop offset="1" stop-color="#00F076"/>
</linearGradient>
<clipPath id="clip0_5_1354">
<rect width="286" height="84.7412" fill="white"/>
</clipPath>
</defs>
</svg>
