<svg width="584" height="146" viewBox="0 0 584 146" fill="none" xmlns="http://www.w3.org/2000/svg">
<g clip-path="url(#clip0_5_1356)">
<path d="M3 146H52.5C75.9721 146 95 126.972 95 103.5H45.5C22.0279 103.5 3 122.528 3 146Z" fill="#F22BB2"/>
<path d="M5.21442 42.5V105C28.6865 105 47.7144 85.9721 47.7144 62.5V0C24.2423 0 5.21442 19.0279 5.21442 42.5Z" fill="#8C30F5"/>
<path d="M143 0H93.5001C70.028 0 51.0001 19.0279 51.0001 42.5H100.5C123.972 42.5 143 23.4721 143 0Z" fill="#FE9A22"/>
<path d="M143 101V38.5C119.528 38.5 100.5 57.5279 100.5 81V143.5C123.972 143.5 143 124.472 143 101Z" fill="#2EC5CE"/>
</g>
<path d="M210.657 93.44V36.5H193.971V109.5H236.729V93.44H210.657Z" fill="black"/>
<path d="M280.903 57.3572V62.2586C277.461 58.2957 272.351 55.8972 265.364 55.8972C251.703 55.8972 240.44 67.89 240.44 83.4286C240.44 98.9672 251.703 110.96 265.364 110.96C272.351 110.96 277.461 108.561 280.903 104.599V109.5H296.545V57.3572H280.903ZM268.493 96.1515C261.297 96.1515 256.083 91.25 256.083 83.4286C256.083 75.6072 261.297 70.7057 268.493 70.7057C275.688 70.7057 280.903 75.6072 280.903 83.4286C280.903 91.25 275.688 96.1515 268.493 96.1515Z" fill="black"/>
<path d="M338.577 55.8972C331.695 55.8972 326.48 58.4 323.665 62.2586V57.3572H308.022V109.5H323.665V81.03C323.665 73.6257 327.627 70.2886 333.363 70.2886C338.369 70.2886 342.436 73.3129 342.436 79.7786V109.5H358.079V77.4843C358.079 63.4057 349.11 55.8972 338.577 55.8972Z" fill="black"/>
<path d="M406.677 36.5V62.2586C403.235 58.2957 398.125 55.8972 391.138 55.8972C377.477 55.8972 366.214 67.89 366.214 83.4286C366.214 98.9672 377.477 110.96 391.138 110.96C398.125 110.96 403.235 108.561 406.677 104.599V109.5H422.32V36.5H406.677ZM394.267 96.1515C387.071 96.1515 381.857 91.25 381.857 83.4286C381.857 75.6072 387.071 70.7057 394.267 70.7057C401.462 70.7057 406.677 75.6072 406.677 83.4286C406.677 91.25 401.462 96.1515 394.267 96.1515Z" fill="black"/>
<path d="M441.617 52.7686C446.727 52.7686 451.003 48.4929 451.003 43.3829C451.003 38.2729 446.727 33.9972 441.617 33.9972C436.507 33.9972 432.232 38.2729 432.232 43.3829C432.232 48.4929 436.507 52.7686 441.617 52.7686ZM433.796 109.5H449.439V57.3572H433.796V109.5Z" fill="black"/>
<path d="M489.564 50.0572V35.04C472.253 33.9972 464.223 42.7572 464.223 57.3572H457.236V72.3743H464.223V109.5H479.866V72.3743H489.564V57.3572H479.866C479.866 51.3086 483.724 49.5357 489.564 50.0572Z" fill="black"/>
<path d="M530.195 57.3572L520.392 89.2686L508.816 57.3572H491.609L512.362 107.101C510.068 113.463 506.626 115.757 499.326 115.757V130.357C513.926 131.087 523.208 124.517 529.048 107.936L546.881 57.3572H530.195Z" fill="black"/>
<path d="M561.954 21.8999H547.856V25.5134H553.002V41.0624H556.78V25.5134H561.954V21.8999Z" fill="black"/>
<path d="M582.815 21.8999H578.928L573.453 30.9611L567.95 21.8999H564.063V41.0624H567.841V28.6616L573.234 37.5311H573.672L579.065 28.6342V41.0624H582.815V21.8999Z" fill="black"/>
<defs>
<clipPath id="clip0_5_1356">
<rect width="146" height="146" fill="white"/>
</clipPath>
</defs>
</svg>
